<?xml version="1.0" encoding="UTF-8" standalone="no"?>
<!DOCTYPE svg PUBLIC "-//W3C//DTD SVG 1.1//EN"
 "http://www.w3.org/Graphics/SVG/1.1/DTD/svg11.dtd">
<!-- Generated by graphviz version 2.38.0 (20140413.2041)
 -->
<!-- Title: G Pages: 1 -->
<svg width="152pt" height="148pt"
 viewBox="0.00 0.00 152.24 148.20" xmlns="http://www.w3.org/2000/svg" xmlns:xlink="http://www.w3.org/1999/xlink">
<g id="graph0" class="graph" transform="scale(1 1) rotate(0) translate(4 144.201)">
<title>G</title>
<polygon fill="#f8f8f8" stroke="none" points="-4,4 -4,-144.201 148.241,-144.201 148.241,4 -4,4"/>
<!-- G -->
<g id="node1" class="node"><title>G</title>
<ellipse fill="white" stroke="black" cx="27" cy="-18" rx="27" ry="18"/>
</g>
<!-- D -->
<g id="node2" class="node"><title>D</title>
<ellipse fill="white" stroke="black" cx="27" cy="-122.201" rx="27" ry="18"/>
</g>
<!-- G&#45;&gt;D -->
<g id="edge1" class="edge"><title>G&#45;&gt;D</title>
<path fill="none" stroke="black" d="M19.9796,-35.7742C8.85863,-64.8216 8.51112,-73.8791 18.937,-101.677"/>
<polygon fill="black" stroke="black" points="18.0732,-102.36 20.1196,-104.792 20.0365,-101.615 18.0732,-102.36"/>
</g>
<!-- L -->
<g id="node3" class="node"><title>L</title>
<ellipse fill="white" stroke="black" cx="117.241" cy="-70.1006" rx="27" ry="18"/>
</g>
<!-- D&#45;&gt;L -->
<g id="edge2" class="edge"><title>D&#45;&gt;L</title>
<path fill="none" stroke="black" d="M53.4587,-118.525C70.7143,-114.997 79.4981,-108.656 100.098,-87.7861"/>
<polygon fill="black" stroke="black" points="101.044,-88.322 102.398,-85.4464 99.5465,-86.8498 101.044,-88.322"/>
</g>
<!-- L&#45;&gt;G -->
<g id="edge3" class="edge"><title>L&#45;&gt;G</title>
<path fill="none" stroke="black" d="M102.259,-54.6129C81.4759,-33.3979 72.4561,-26.2195 56.7043,-22.3989"/>
<polygon fill="black" stroke="black" points="56.6152,-21.3034 53.4587,-21.6764 56.1589,-23.3533 56.6152,-21.3034"/>
</g>
</g>
</svg>
